<?xml version="1.0" encoding="UTF-8"?><svg id="Layer_1" xmlns="http://www.w3.org/2000/svg" viewBox="0 0 450 100"><defs><style>.cls-1{fill:#0d202c;}.cls-2{fill:#fffdfd;}.cls-3{fill:#ebdbd4;}.cls-4{fill:#6c3e98;}.cls-4,.cls-5,.cls-6,.cls-7,.cls-8{fill-rule:evenodd;}.cls-5{fill:#c0258f;}.cls-9{fill:#e9e4e2;}.cls-6{fill:#02b2a8;}.cls-7{fill:#3ab14a;}.cls-10{fill:#273c7e;}.cls-11{fill:#f05225;}.cls-12{fill:#fdb813;}.cls-8{fill:#15133c;}.cls-13{fill:#f05423;}.cls-14{fill:#06b3b3;}.cls-15{fill:#747474;}.cls-16{fill:#62b7e7;}.cls-17{font-family:Bahnschrift, Bahnschrift;font-size:1.96px;font-variation-settings:'wght' 400, 'wdth' 100;}.cls-17,.cls-18{fill:#010101;}.cls-19{fill:#7fbb42;}.cls-20{fill:#303743;}.cls-21{fill:#4d9ed7;}.cls-22{fill:#33a0da;}</style></defs><g><path class="cls-13" d="M257.04,20.94c.45-.09,.9-.16,1.36-.17,.41-.02,.83-.02,1.24,.02,.42,.04,.84,.13,1.26,.22,.44,.11,.87,.27,1.29,.44,.24,.1,.47,.22,.69,.34,.22,.13,.45,.26,.66,.41,.5,.35,.97,.75,1.39,1.19,.18,.17,.15,.49-.03,.65-.45,.39-.9,.76-1.36,1.14-.16,.14-.33,.27-.49,.41-.23,.18-.47,.46-.79,.34-.12-.1-.24-.2-.36-.31-.28-.25-.6-.45-.94-.63-.42-.22-.88-.36-1.34-.44-.43-.07-.88-.1-1.31-.03-.44,.08-.89,.18-1.3,.38-.37,.19-.73,.43-1.04,.72-.09,.09-.19,.18-.27,.28-.26,.3-.47,.65-.64,1.01-.15,.31-.26,.64-.31,.98-.09,.55-.09,1.13,.03,1.68,.11,.47,.28,.93,.54,1.33,.11,.17,.23,.33,.36,.48,.27,.3,.58,.57,.92,.78,.14,.08,.27,.15,.41,.22,.39,.2,.82,.3,1.25,.37,.45,.06,.9,.05,1.35-.02,1-.17,1.93-.67,2.64-1.39,.16,0,.33-.03,.46,.08,.28,.21,.54,.45,.81,.67,.02,.02,.07,.06,.1,.08,.39,.33,.78,.68,1.19,.99,.1,.09,.18,.19,.25,.3,0,.21-.07,.41-.23,.55-.26,.26-.53,.51-.82,.73-.17,.13-.35,.26-.53,.38-.4,.28-.83,.5-1.27,.7-.19,.08-.39,.16-.58,.23-.23,.09-.47,.16-.72,.22-.42,.1-.85,.19-1.28,.22-.45,.04-.91,.04-1.36,0-.41-.02-.82-.08-1.22-.16-.91-.17-1.79-.49-2.59-.96-.9-.51-1.71-1.19-2.35-2.01-.09-.11-.17-.22-.25-.33-.21-.29-.38-.6-.54-.92-.22-.42-.39-.86-.52-1.31-.19-.6-.24-1.23-.3-1.85v-.69c.06-.89,.23-1.77,.58-2.6,.19-.47,.44-.92,.72-1.34l.04-.06c.31-.44,.65-.85,1.05-1.22,.09-.08,.18-.17,.27-.25,.75-.66,1.63-1.16,2.56-1.51,.43-.17,.88-.29,1.33-.38Z"/><path class="cls-13" d="M320.94,20.81c.55-.06,1.11-.08,1.66-.05,.31,.02,.62,.06,.93,.12,.44,.08,.89,.17,1.32,.33,.44,.15,.88,.33,1.29,.54l.06,.03c.42,.24,.84,.5,1.22,.79,.2,.16,.4,.33,.59,.51,.25,.24,.5,.49,.72,.76,.14,.17,.28,.35,.41,.54,.81,1.18,1.28,2.58,1.36,4.01v.6c-.05,.63-.14,1.27-.32,1.88-.05,.15-.1,.3-.15,.45-.1,.28-.23,.55-.36,.82-.23,.46-.52,.89-.84,1.29-.02,.03-.07,.09-.09,.11-.37,.44-.77,.84-1.22,1.2-.02,.02-.07,.06-.1,.07-.41,.29-.82,.59-1.27,.8-.28,.14-.55,.28-.84,.39-.17,.06-.34,.13-.51,.19-.42,.13-.84,.22-1.27,.3-.31,.06-.62,.09-.93,.12-.56,.04-1.13,.01-1.69-.05-.43-.06-.85-.14-1.26-.25-.91-.24-1.77-.64-2.56-1.16-.19-.12-.37-.25-.55-.39-.28-.23-.55-.47-.81-.73-.17-.18-.34-.37-.51-.57-.29-.38-.55-.77-.78-1.18-.02-.03-.05-.1-.07-.13-.22-.42-.4-.86-.52-1.31-.11-.41-.22-.83-.27-1.26-.06-.44-.05-.89-.04-1.33,.04-.43,.1-.86,.2-1.28,.1-.45,.25-.89,.44-1.31,.08-.2,.17-.39,.27-.57,.13-.24,.27-.47,.43-.69,.59-.84,1.34-1.58,2.19-2.16,.25-.17,.51-.33,.77-.47,.16-.08,.32-.17,.48-.24,.42-.18,.85-.34,1.29-.46,.43-.12,.87-.2,1.3-.26Zm0,3.82v.03c-.5,.1-.95,.36-1.37,.64-.13,.1-.26,.2-.38,.31-.68,.63-1.16,1.48-1.32,2.4-.1,.54-.05,1.09,.01,1.63h.02c.07,.33,.18,.65,.35,.95,.05,.11,.11,.22,.16,.33h.02c.29,.5,.72,.91,1.18,1.25l.11,.06c.36,.26,.78,.42,1.21,.54,.42,.11,.85,.14,1.28,.13,.46-.02,.91-.14,1.34-.3,.26-.12,.52-.25,.76-.41,.2-.12,.37-.28,.54-.43,.26-.27,.53-.54,.71-.87,.29-.39,.43-.87,.56-1.34,.09-.42,.13-.86,.06-1.28-.05-.46-.21-.9-.38-1.33-.25-.49-.58-.92-.96-1.31h-.06c-.33-.36-.76-.63-1.23-.79v-.03c-.43-.15-.88-.27-1.34-.3-.44-.04-.86,.06-1.29,.13Z"/><path class="cls-13" d="M266.83,21.23c.11-.24,.4-.26,.63-.25,.43,0,.86,0,1.28,0,.44,0,.89,0,1.33,0,.43,0,.86,0,1.28,0,.44,0,.89,0,1.33,0,.42,0,.84,0,1.26,0,.45,.03,.9,.07,1.34,.2,.44,.12,.87,.29,1.27,.51,.04,.02,.12,.07,.16,.09,.42,.25,.8,.56,1.15,.91,.11,.12,.22,.25,.32,.38,.58,.73,.94,1.63,1.06,2.56,.05,.44,.05,.89,0,1.33-.02,.13-.04,.27-.06,.4-.07,.3-.16,.6-.27,.89-.19,.46-.45,.89-.77,1.28-.09,.1-.18,.19-.27,.28-.3,.35-.87,.51-.92,1.04,.03,.18,.09,.35,.19,.49,.49,.71,.96,1.43,1.44,2.14,.2,.29,.39,.57,.58,.86,.1,.15,.2,.3,.3,.45,.26,.36,.61,.81,.34,1.27-.15,.18-.37,.29-.61,.28-.43,0-.87,0-1.3,0h-1.31c-.43,0-.86,0-1.29,0-.31,.03-.63-.05-.83-.3-.15-.2-.29-.4-.45-.59-.19-.23-.37-.46-.55-.7-.25-.3-.46-.62-.75-.88-.21-.15-.48-.26-.74-.17-.28,.08-.43,.37-.45,.64-.03,.54,0,1.09-.02,1.63l-.03,.07c-.03,.05-.08,.15-.11,.21-.41,.14-.86,.06-1.29,.08h-1.31c-.43,0-.86,0-1.29,0-.26,.04-.53-.06-.67-.29-.02-.42,0-.85,0-1.27,0-.44,0-.88,0-1.32,.02-.16-.06-.37,.07-.5,.19-.09,.41-.08,.61-.12,1.65-.27,3.07-1.6,3.44-3.24,.11-.5,.14-1.03,.05-1.54-.07-.39-.18-.78-.36-1.14-.14-.27-.31-.54-.49-.78-.15-.2-.33-.38-.51-.54-.24-.23-.52-.41-.81-.58-.41-.24-.87-.38-1.34-.46-.17-.03-.34-.04-.5-.05l-.15-.13c0-.45,0-.89,0-1.34,0-.43,0-.86,0-1.29,0-.17,0-.35,.05-.51Z"/><path class="cls-13" d="M281.44,21.21c.11-.09,.21-.17,.33-.24,.45,0,.89,0,1.34,0,.43,0,.86,0,1.29,0,.29,0,.58-.02,.86,0,.19,.03,.35,.2,.36,.39,.04,1.05-.02,2.1,.01,3.15,0,2.95,0,5.91,0,8.86-.03,.87,.04,1.74-.01,2.61-.17,.51-.81,.3-1.21,.34-.43,0-.86,0-1.29,0-.44-.01-.89,0-1.33,0-.13-.05-.24-.15-.34-.25,0-.04,0-.11,0-.15,.04-.74-.02-1.47,0-2.21,.05-.95-.03-1.91,0-2.86,.03-.87-.03-1.74,0-2.61s-.03-1.74,0-2.61c.03-.87-.03-1.74,0-2.6,.03-.61,0-1.23,0-1.84Z"/><path class="cls-13" d="M287.07,21.26c.25-.47,.84-.23,1.26-.28,.43,0,.85,0,1.28,0,.44,0,.89,0,1.33,0,.43,0,.86,0,1.29,0,.44,0,.88,0,1.32,0,.43,0,.86,0,1.29,0,.44,0,.88,0,1.32,0,.43,0,.86,0,1.29,0,.44,0,.88,0,1.32,0,.2,0,.45-.02,.58,.17,.13,.16,.1,.39,.11,.58,0,.44,0,.88,0,1.32s0,.87,0,1.3c-.03,.35-.39,.48-.7,.43-.43,0-.87,0-1.3,0-.44,0-.87,0-1.31,0-.23,0-.46,0-.69,.01v.05c-.04,.09-.06,.18-.06,.27,0,3.63,0,7.27,0,10.9l-.02,.06c-.11,.18-.31,.28-.53,.27-.43,0-.87,0-1.3,0-.44,0-.88,0-1.32,0-.35,0-.8,.1-1.02-.27-.03-.44-.01-.87-.02-1.31,0-.43,0-.85,0-1.28v-6.54c0-.43,0-.85,0-1.28-.06-.29,.19-.88-.27-.89-.43,0-.86,0-1.29,0h-1.32c-.37,0-.75,.04-1.11-.08-.06-.1-.11-.2-.17-.3v-.07c0-.43,0-.86,0-1.28,0-.44,0-.88,0-1.33,0-.16,.01-.31,.03-.46Z"/><path class="cls-13" d="M300.93,21.74c-.05-.32,.03-.75,.43-.77,.43,0,.87,0,1.3,0,.44,0,.88,0,1.33,0,.43,0,.85,0,1.28,0,.44,0,.88,0,1.33,0,.43,0,.86,0,1.29,0,.44,0,.88,0,1.32,0,.43,0,.85,0,1.28,0,.44,0,.89,0,1.33,0,.15,.02,.3,.06,.39,.19,.07,.18,.07,.38,.07,.57,0,.44,0,.88,0,1.32,0,.43,0,.85,0,1.28-.03,.25-.24,.41-.48,.41-.43,0-.85,0-1.28,0-.45,0-.9,0-1.35,0-.42,0-.84,0-1.27,0-.45,0-.89,0-1.34,0-.43,0-.86,0-1.28,0-.1,.04-.15,.11-.15,.22-.01,.49,0,.98,0,1.46,0,.15-.04,.38,.16,.42,.44,.04,.88,0,1.32,.01,.42,0,.84,0,1.27,0,.44,0,.88,0,1.32,0,.43,0,.86,0,1.29,0,.34,0,.69-.02,1.03,.02,.13,.06,.27,.18,.27,.33,.02,.35,0,.71,0,1.06,0,.43,0,.86,0,1.28,0,.17,0,.34-.01,.51-.32,.38-.85,.19-1.28,.23-.44,0-.89,0-1.33,0-.43,0-.85,0-1.28,0-.84,0-1.69,0-2.53,0-.23-.04-.25,.22-.24,.39,.01,.6-.01,1.2,.01,1.79,.06,.17,.25,.14,.39,.15,.79,0,1.58,0,2.36,0,.43,0,.86,0,1.29,0,.44,0,.88,0,1.32,0,.43,0,.86,0,1.29,0,.17,0,.37-.03,.5,.1,.2,.2,.16,.5,.16,.76,0,.43,0,.86,0,1.29,0,.45,.02,.89-.03,1.34-.15,.18-.38,.25-.61,.23-.44,0-.88-.01-1.32,0-.43,0-.86,0-1.29,0-.44,0-.88,0-1.32,0-.43,0-.86,0-1.29,0-.44,0-.88,0-1.32,0-.43,0-.86,0-1.29,0-.44,0-.88,0-1.31,0-.43,0-.87,0-1.3,0-.18-.03-.32-.14-.42-.28-.03-.42-.01-.85-.01-1.27v-11.76c0-.43,0-.86,0-1.29Z"/></g><path class="cls-2" d="M33.35,17c.17-.15,.34-.29,.51-.43,0,.17,0,.34,0,.51-.18-.01-.35-.04-.52-.08Z"/><path class="cls-3" d="M92.18,17.02c.13-.11,.26-.22,.4-.33,.02,.12,.03,.24,.05,.36-.15-.01-.3-.02-.45-.04Z"/><path class="cls-9" d="M27.25,22.58c.14-.02,.28-.04,.41-.05-.01,.19-.02,.37-.04,.56-.14-.16-.26-.33-.38-.51Z"/><g><path class="cls-11" d="M131.64,20.97h9.12v9.11c-3.04,0-6.08,0-9.12,0,0-3.04,0-6.07,0-9.11Z"/><path class="cls-19" d="M141.72,20.97h9.12v9.11c-3.04,0-6.08,0-9.12,0v-9.11Z"/><g><path class="cls-15" d="M214.91,24.08c.56-.16,1.15-.12,1.72-.08,.12,.01,.23,.05,.34,.09,0,.56,0,1.12,0,1.68-.25-.11-.5-.2-.77-.21-.37-.03-.77,.06-1.03,.33-.25,.26-.33,.64-.35,1-.01,.38,0,.76,0,1.14,.97,0,1.94,0,2.9,0,0-.62,0-1.24,0-1.87,.65-.19,1.3-.39,1.95-.59,0,.82,0,1.63,0,2.45,.66,0,1.31,0,1.97,0,0,.53,0,1.07,0,1.6-.66,0-1.32,0-1.97,0,0,1.23,0,2.46,0,3.69,0,.41,.01,.86,.25,1.22,.23,.28,.62,.35,.96,.33,.26-.03,.51-.12,.73-.26,0,.53,0,1.06,0,1.6-.28,.15-.6,.18-.91,.23-.57,.06-1.17,.05-1.72-.15-.39-.15-.73-.43-.94-.8-.28-.49-.36-1.07-.36-1.63,0-1.4,.02-2.8,.03-4.2-.97,0-1.94,0-2.91,0v6.66c-.66,0-1.32,0-1.97,0,0-2.22,0-4.44,0-6.66h-1.39c0-.53,0-1.07,0-1.6h1.39c0-.4,0-.81,0-1.21,0-.58,.17-1.15,.49-1.63,.37-.55,.93-.97,1.57-1.14Z"/><path class="cls-15" d="M171.7,24.59c.33-.05,.68,0,.95,.21,.24,.19,.42,.47,.45,.79,.03,.31-.07,.65-.3,.87-.35,.36-.91,.45-1.36,.27-.28-.11-.49-.35-.61-.63-.16-.37-.1-.84,.18-1.13,.19-.2,.43-.34,.7-.38Z"/><path class="cls-15" d="M156.62,24.81c.96,0,1.92,0,2.88,0,1.09,2.82,2.19,5.63,3.28,8.45,.01,.04,.04,.07,.08,.09,1.17-2.84,2.33-5.7,3.5-8.54,.9,0,1.81,0,2.72,0v11.51h-2c0-3.02,0-6.04,0-9.06-.18,.38-.31,.77-.47,1.16-1.04,2.63-2.08,5.27-3.12,7.9h-1.33c-1.11-2.74-2.22-5.48-3.33-8.22-.12-.28-.22-.56-.34-.83-.02,.12-.01,.24-.01,.36v8.69c-.61,0-1.23,0-1.84,0v-11.51Z"/><path class="cls-15" d="M198.93,27.84c.55-.08,1.11-.06,1.65,.06,.3,.07,.61,.14,.9,.24,0,.63,0,1.26,0,1.89-.5-.29-1.03-.57-1.62-.62-.37-.03-.76-.03-1.09,.15-.43,.28-.48,.96-.13,1.32,.23,.2,.52,.32,.79,.45,.59,.24,1.19,.48,1.7,.87,.44,.34,.74,.86,.8,1.41,.08,.61-.04,1.26-.43,1.75-.38,.48-.92,.83-1.51,.98-.75,.2-1.55,.21-2.32,.07-.43-.07-.86-.18-1.26-.35,0-.64,0-1.28,0-1.92,.57,.39,1.21,.67,1.9,.77,.32,.04,.65,.04,.96-.02,.25-.04,.5-.17,.61-.41,.12-.27,.08-.6-.09-.84-.09-.13-.21-.24-.34-.33-.57-.36-1.23-.53-1.8-.88-.35-.21-.68-.47-.9-.83-.3-.49-.38-1.1-.29-1.67,.08-.54,.38-1.03,.8-1.38,.46-.4,1.05-.62,1.65-.71Z"/><path class="cls-15" d="M176.38,28.38c.76-.4,1.63-.53,2.48-.5,.62,.03,1.25,.16,1.81,.45,0,.62,0,1.24,0,1.86-.27-.19-.55-.36-.85-.49-.38-.14-.79-.23-1.2-.2-.57,.02-1.15,.23-1.57,.63-.43,.39-.69,.96-.76,1.53-.08,.66-.05,1.37,.25,1.98,.25,.52,.73,.93,1.28,1.11,.53,.17,1.11,.21,1.65,.04,.44-.15,.86-.37,1.24-.64,0,.6,0,1.21,0,1.81-.57,.34-1.25,.46-1.9,.51-.8,.06-1.64-.02-2.37-.37-.57-.27-1.06-.7-1.44-1.2-.43-.57-.67-1.27-.74-1.98-.07-.75,0-1.52,.24-2.24,.33-.96,.99-1.84,1.9-2.32Z"/><path class="cls-15" d="M190.81,27.9c.77-.07,1.57-.02,2.3,.25,.56,.21,1.07,.56,1.45,1.02,.48,.57,.77,1.29,.89,2.03,.1,.64,.09,1.3-.02,1.94-.11,.66-.37,1.3-.77,1.84-.37,.5-.87,.9-1.44,1.16-.66,.3-1.39,.4-2.11,.39-.66-.01-1.34-.13-1.94-.42-.52-.25-.99-.63-1.32-1.1-.46-.63-.7-1.4-.76-2.18-.05-.7,0-1.4,.19-2.08,.19-.66,.53-1.28,1.02-1.76,.67-.66,1.6-1.01,2.52-1.1Zm.16,1.6c-.47,.06-.92,.3-1.23,.67-.39,.42-.58,1-.63,1.57-.05,.55-.03,1.11,.12,1.64,.13,.46,.4,.89,.8,1.16,.57,.39,1.32,.45,1.99,.29,.56-.13,1.01-.55,1.24-1.07,.27-.61,.3-1.29,.27-1.95-.04-.64-.21-1.31-.67-1.78-.48-.49-1.22-.63-1.88-.53Z"/><path class="cls-15" d="M206.55,27.9c.85-.07,1.74,0,2.53,.35,.58,.26,1.07,.69,1.43,1.21,.65,.95,.82,2.14,.72,3.27-.09,.99-.48,1.98-1.2,2.69-.42,.41-.94,.72-1.49,.89-.67,.21-1.38,.26-2.07,.21-.73-.06-1.46-.27-2.06-.7-.35-.24-.64-.54-.87-.89-.44-.66-.67-1.44-.72-2.23-.04-.68,.02-1.37,.22-2.03,.2-.64,.54-1.24,1.03-1.71,.67-.64,1.58-.98,2.49-1.06Zm.16,1.6c-.47,.06-.92,.3-1.23,.67-.41,.47-.61,1.1-.64,1.71-.03,.51,0,1.03,.14,1.51,.13,.47,.43,.9,.84,1.17,.57,.36,1.29,.41,1.94,.26,.54-.12,.99-.53,1.22-1.02,.28-.6,.32-1.27,.29-1.92-.04-.65-.19-1.34-.65-1.83-.48-.5-1.23-.65-1.9-.55Z"/><path class="cls-15" d="M185.19,28.15c.55-.25,1.2-.29,1.77-.11,0,.66,0,1.31,0,1.97-.26-.19-.58-.25-.88-.3-.37-.05-.77,0-1.09,.22-.42,.28-.69,.74-.8,1.22-.09,.36-.11,.73-.11,1.1v4.08h-1.95c0-2.75,0-5.51,0-8.26,.65,0,1.3,0,1.95,0,0,.44,0,.88,0,1.32,.1-.18,.17-.37,.3-.53,.21-.29,.47-.56,.8-.71Z"/><path class="cls-15" d="M170.94,28.06c.65,0,1.3,0,1.95,0,0,2.75,0,5.51,0,8.26h-1.95c0-2.75,0-5.51,0-8.26Z"/></g><path class="cls-22" d="M131.64,31.04c3.04,0,6.08,0,9.12,0v9.11h-9.12c0-3.04,0-6.07,0-9.11Z"/><path class="cls-12" d="M141.72,31.04h9.12v9.11h-9.12v-9.11Z"/></g><g><path class="cls-8" d="M109.32,81.23c-.25,0-.39-.16-.39-.37s.14-.37,.39-.37c.63,0,.91-.2,1.32-1.28l.27-.68-2.37-6.16s-.03-.11-.03-.19c0-.18,.15-.36,.38-.36,.17,0,.3,.09,.37,.28l2.04,5.37h.01l1.98-5.37c.07-.2,.2-.28,.36-.28,.22,0,.36,.17,.36,.36,0,.07-.01,.14-.03,.19l-2.64,6.96c-.59,1.58-1.07,1.91-1.91,1.91h-.11Zm-4.35-2.92v-7.25c0-1.62,.52-2.08,1.87-2.08h.2c.25,0,.39,.16,.39,.37s-.14,.37-.39,.37c-1.11,0-1.31,.17-1.31,1.24v.83c0,.06,.03,.09,.08,.09h1.26c.24,0,.35,.14,.35,.34s-.11,.34-.35,.34h-1.26c-.06,0-.08,.03-.08,.09v5.67c0,.27-.16,.41-.38,.41s-.38-.14-.38-.41h0Zm-2.31,0v-6.08c0-.27,.15-.41,.38-.41s.38,.14,.38,.41v6.08c0,.27-.15,.41-.38,.41s-.38-.14-.38-.41Zm-.21-8.78c0-.33,.27-.6,.59-.6s.59,.27,.59,.6-.27,.6-.59,.6-.59-.27-.59-.6Zm-4.77,8.78v-6.08c0-.27,.15-.41,.38-.41s.38,.14,.38,.41v.65h.01c.25-.68,.88-1.15,1.76-1.15,.53,0,.88,.14,1.15,.3,.17,.1,.22,.21,.22,.34,0,.21-.15,.38-.38,.38-.06,0-.13-.01-.2-.04-.31-.14-.6-.24-.94-.24-1.18,0-1.63,1.02-1.63,2.29v3.54c0,.27-.16,.41-.38,.41s-.38-.14-.38-.41h0Zm-2.15-3.53c.06,0,.08-.03,.08-.09,0-.4-.04-.7-.13-.97-.27-.84-.93-1.28-1.8-1.28s-1.52,.44-1.78,1.28c-.08,.27-.13,.57-.13,.97,0,.06,.03,.09,.08,.09h3.66Zm-4.31,2.25c-.14-.43-.21-.9-.21-1.76s.07-1.32,.21-1.77c.36-1.14,1.28-1.76,2.47-1.76s2.12,.63,2.49,1.76c.14,.43,.21,.94,.21,1.62,0,.21-.14,.36-.35,.36h-4.17c-.06,0-.08,.03-.08,.09,0,.56,.03,.84,.14,1.18,.29,.9,.98,1.32,1.9,1.32,.76,0,1.31-.24,1.81-.77,.07-.07,.17-.14,.28-.14,.2,0,.34,.14,.34,.33,0,.1-.03,.18-.08,.26-.48,.61-1.28,1.07-2.39,1.07-1.29,0-2.18-.61-2.56-1.78h0Zm-7.77-2.25c.06,0,.08-.03,.08-.09,0-.4-.04-.7-.13-.97-.27-.84-.93-1.28-1.8-1.28s-1.52,.44-1.78,1.28c-.08,.27-.13,.57-.13,.97,0,.06,.03,.09,.08,.09h3.66Zm-4.31,2.25c-.14-.43-.21-.9-.21-1.76s.07-1.32,.21-1.77c.36-1.14,1.28-1.76,2.47-1.76s2.12,.63,2.49,1.76c.14,.43,.21,.94,.21,1.62,0,.21-.14,.36-.35,.36h-4.17c-.06,0-.08,.03-.08,.09,0,.56,.03,.84,.14,1.18,.29,.9,.98,1.32,1.9,1.32,.76,0,1.31-.24,1.81-.77,.07-.07,.17-.14,.28-.14,.2,0,.34,.14,.34,.33,0,.1-.03,.18-.08,.26-.48,.61-1.28,1.07-2.39,1.07-1.29,0-2.18-.61-2.56-1.78Zm7.99,1.25l-2.99-8.78c-.01-.06-.03-.13-.03-.19,0-.23,.17-.38,.39-.38,.17,0,.31,.11,.38,.31l2.74,8.07h.03l2.7-8.07c.07-.2,.21-.31,.38-.31,.22,0,.39,.16,.39,.38,0,.06-.01,.14-.03,.19l-2.99,8.78c-.1,.3-.23,.44-.49,.44-.25,0-.38-.14-.48-.44h0Zm-9.49,.44c-1.02,0-1.39-.48-1.39-1.59v-7.77c0-.27,.15-.41,.38-.41s.38,.14,.38,.41v7.74c0,.67,.18,.88,.77,.88,.25,0,.39,.16,.39,.37s-.14,.37-.39,.37h-.14Zm-3.58-1.88c.14-.44,.18-.9,.18-1.58s-.04-1.12-.18-1.57c-.25-.77-.86-1.22-1.71-1.22s-1.46,.38-1.73,1.18c-.11,.37-.17,.94-.17,1.61s.06,1.25,.17,1.62c.27,.8,.88,1.18,1.73,1.18s1.46-.46,1.71-1.22h0Zm-3.59,.97h-.01v.5c0,.27-.15,.41-.38,.41s-.38-.14-.38-.41v-8.97c0-.27,.15-.41,.38-.41s.38,.14,.38,.41v3.39h.01c.32-.58,.91-1,2.01-1s1.95,.61,2.3,1.68c.17,.56,.24,1.08,.24,1.85s-.07,1.31-.24,1.86c-.35,1.07-1.17,1.68-2.3,1.68s-1.69-.41-2.01-1Zm-3,.5v-.47h-.01c-.38,.61-1.01,.97-1.95,.97-1.47,0-2.32-.94-2.32-2.59v-3.99c0-.27,.15-.41,.38-.41s.38,.14,.38,.41v3.8c0,1.35,.56,2.04,1.73,2.04,1.01,0,1.8-.73,1.8-1.89v-3.94c0-.27,.15-.41,.38-.41s.38,.14,.38,.41v6.08c0,.27-.15,.41-.38,.41s-.38-.14-.38-.41h0Zm-6.31-1.51c.13-.38,.18-.8,.18-1.54s-.06-1.14-.18-1.52c-.27-.81-.91-1.27-1.78-1.27s-1.5,.46-1.77,1.27c-.13,.38-.18,.8-.18,1.52s.06,1.15,.18,1.54c.27,.81,.91,1.27,1.77,1.27s1.52-.46,1.78-1.27h0Zm-4.28,.24c-.14-.46-.22-.95-.22-1.78s.08-1.31,.22-1.77c.37-1.12,1.28-1.76,2.5-1.76s2.15,.64,2.51,1.76c.14,.46,.22,.95,.22,1.77s-.08,1.32-.22,1.78c-.37,1.12-1.28,1.76-2.51,1.76s-2.13-.64-2.5-1.76h0Zm-6.85,.91h1.91c1.43,0,2.19-.48,2.58-1.69,.18-.58,.25-1.14,.25-2.38s-.07-1.79-.25-2.38c-.39-1.21-1.15-1.69-2.58-1.69h-1.91c-.06,0-.08,.03-.08,.09v7.97c0,.06,.03,.09,.08,.09Zm-.88-8.53c0-.24,.15-.38,.39-.38h2.51c1.76,0,2.79,.78,3.24,2.19,.21,.67,.28,1.25,.28,2.65s-.07,1.98-.28,2.65c-.45,1.41-1.49,2.19-3.24,2.19h-2.51c-.24,0-.39-.14-.39-.38v-8.91Z"/><path class="cls-6" d="M15.13,81.23c-.62,0-1.12-.52-1.12-1.17v-13.32c0-.64,.5-1.17,1.12-1.17s1.12,.52,1.12,1.17v13.32c0,.64-.5,1.17-1.12,1.17Z"/><path class="cls-7" d="M20.08,81.23h-1.53c-.65,0-1.18-.52-1.18-1.17s.53-1.17,1.18-1.17h1.53c3.06,0,5.56-2.46,5.56-5.49s-2.49-5.49-5.56-5.49h-1.53c-.65,0-1.18-.52-1.18-1.17s.53-1.17,1.18-1.17h1.53c4.36,0,7.91,3.51,7.91,7.83s-3.55,7.83-7.91,7.83Z"/><path class="cls-5" d="M36.35,81.23c-.43,0-.84-.25-1.04-.67l-6.1-13.32c-.27-.58-.02-1.28,.55-1.55,.57-.27,1.25-.02,1.52,.56l6.1,13.32c.27,.58,.02,1.28-.55,1.55-.16,.07-.32,.11-.48,.11h0Z"/><path class="cls-4" d="M38.52,76.76c-.16,0-.32-.04-.47-.11-.56-.27-.8-.97-.54-1.55l3.93-8.84c.26-.58,.92-.84,1.48-.56,.56,.27,.8,.97,.54,1.55l-3.93,8.84c-.19,.42-.59,.67-1.01,.67h0Z"/><path class="cls-8" d="M46.26,84.59h.28v-22.36h-.28v22.36Z"/></g><g><g><path class="cls-18" d="M359.35,18.17c3.98,0,7.95,0,11.93,0,1.35,.02,2.78,.2,3.9,1.01,1.01,.72,1.53,1.97,1.52,3.19,.04,.97-.22,1.98-.9,2.7-.54,.59-1.27,.94-2.02,1.18,1.15,.28,2.32,.79,3.02,1.79,.85,1.18,.89,2.75,.62,4.13-.25,1.28-1.09,2.45-2.26,3.04-.93,.5-2,.6-3.04,.62-4.26,0-8.52,0-12.78,0,0-5.89,0-11.77,0-17.66Zm4.31,3.1c0,1.28,0,2.56,0,3.83,2.12,0,4.25,0,6.37,0,.63,0,1.32-.07,1.82-.49,.69-.6,.73-1.68,.38-2.47-.28-.62-.99-.87-1.64-.88-2.31,0-4.63,0-6.94,0Zm0,6.93c0,1.52,0,3.03,0,4.55,2.21,0,4.43,0,6.65,0,.68,0,1.41-.03,1.99-.42,.53-.34,.82-.96,.87-1.57,.07-.7,0-1.5-.54-2.02-.46-.45-1.14-.54-1.75-.54-2.4,0-4.81,0-7.21,0Z"/><path class="cls-18" d="M413.24,18.17h4.31c0,.59,0,1.18,0,1.77-1.44,0-2.87,0-4.31,0,0-.59,0-1.18,0-1.77Z"/><path class="cls-18" d="M437.02,20.5c.81-.28,1.75,.46,1.61,1.32-.07,.87-1.15,1.42-1.88,.93-.89-.49-.73-2.01,.28-2.25Zm-.16,.25c-.66,.36-.73,1.41-.09,1.81,.66,.51,1.74-.05,1.68-.89,.03-.79-.93-1.34-1.6-.93Z"/><path class="cls-18" d="M381.75,22.48c1.81-1.11,4-1.27,6.07-1.2,1.79,.08,3.68,.45,5.11,1.61,1.26,1.06,1.78,2.77,1.83,4.37,0,2.89,0,5.77,0,8.66-1.45,0-2.89,0-4.34,0,0-.38,0-.76,0-1.14-1.15,1.16-2.84,1.52-4.42,1.55-1.68,.03-3.46,.06-5-.71-1.18-.62-2.08-1.81-2.26-3.14-.13-.99-.02-2.03,.42-2.93,.38-.75,1.05-1.34,1.84-1.63,1.41-.53,2.94-.58,4.42-.62,1.66-.01,3.32,0,4.97,0-.04-.93-.26-1.94-1.01-2.58-1.09-.94-2.73-.93-4.02-.46-.87,.31-1.4,1.16-1.55,2.03-1.44,0-2.88,0-4.32,0,.14-1.52,.94-3.01,2.26-3.81Zm3.55,7.32c-.65,.14-1.35,.32-1.83,.82-.65,.64-.65,1.88,.13,2.43,.86,.64,2,.62,3.02,.48,1.25-.2,2.61-.63,3.39-1.7,.52-.67,.36-1.57,.38-2.36-1.7,.03-3.41,0-5.08,.33Z"/><path class="cls-18" d="M399.91,21.76c1.78-.57,3.69-.56,5.54-.41,1.7,.18,3.52,.6,4.77,1.85,.82,.81,1.19,1.96,1.27,3.08-1.51,.02-3.01,0-4.52,0-.11-.78-.47-1.63-1.28-1.89-1.19-.4-2.52-.37-3.73-.07-.64,.14-1.25,.82-.93,1.49,.44,.6,1.24,.7,1.91,.88,2.19,.44,4.46,.6,6.54,1.46,.99,.42,1.98,1.11,2.33,2.18,.44,1.43-.04,3.09-1.17,4.08-.91,.82-2.09,1.24-3.26,1.52-2.02,.44-4.11,.41-6.14,.09-1.67-.3-3.44-.85-4.57-2.2-.61-.68-.85-1.59-.93-2.48,1.59,0,3.17,0,4.76,0,.04,.66,.38,1.3,.98,1.6,1.05,.51,2.26,.54,3.41,.5,.71-.05,1.48-.15,2.04-.63,.4-.34,.53-1,.18-1.42-.43-.5-1.1-.66-1.71-.82-2.13-.47-4.35-.54-6.41-1.31-.94-.36-1.88-.93-2.33-1.86-.48-1.06-.32-2.34,.24-3.34,.64-1.13,1.79-1.9,3.01-2.29Z"/><path class="cls-18" d="M413.25,21.27c1.43,0,2.87,0,4.3,0,0,4.85,0,9.71,0,14.56-1.44,0-2.87,0-4.3,0,0-4.86,0-9.71,0-14.56Z"/><path class="cls-18" d="M421.42,22.39c1.22-.74,2.66-1.02,4.06-1.1,1.63-.06,3.3,0,4.88,.44,1.17,.33,2.35,.91,3.09,1.92,.58,.76,.83,1.71,.88,2.65-1.5,0-3,0-4.51,0-.1-.7-.37-1.45-1.05-1.78-1.02-.5-2.21-.44-3.3-.33-.58,.1-1.28,.24-1.57,.81-.16,.34-.18,.81,.16,1.05,.52,.41,1.2,.52,1.83,.67,1.97,.4,4,.56,5.91,1.23,.97,.36,1.98,.86,2.56,1.76,.67,1.05,.56,2.45,.03,3.53-.6,1.21-1.82,1.94-3.05,2.38-1.93,.64-4.01,.73-6.02,.55-1.82-.18-3.72-.58-5.18-1.74-.95-.74-1.48-1.91-1.53-3.09,1.58-.02,3.17,0,4.75,0,.05,.54,.25,1.1,.72,1.42,.86,.6,1.95,.65,2.95,.69,.9,0,1.88-.02,2.65-.55,.5-.32,.69-1.09,.27-1.55-.45-.46-1.11-.62-1.71-.78-2.08-.46-4.26-.54-6.28-1.27-.87-.32-1.74-.78-2.24-1.58-1.13-1.83-.1-4.36,1.7-5.33Z"/><path class="cls-18" d="M381.04,38.9c1.38,0,2.76,0,4.15,0v.7c-.56,0-1.12,0-1.68,0,0,1.57,0,3.15,0,4.72-.26,0-.53,0-.79,0,0-1.58,0-3.15,0-4.73-.56,0-1.12,0-1.68,0,0-.23,0-.47,0-.7Z"/><path class="cls-18" d="M395.56,38.9c.24,0,.48,0,.72,0,0,.64,0,1.27-.01,1.91,.55-.48,1.38-.73,2.06-.39,.37,.18,.55,.6,.55,.99,.02,.97,0,1.94,0,2.91-.24,0-.48,0-.71,0-.03-.96,.04-1.93-.03-2.89-.03-.4-.47-.54-.81-.52-.42,0-.76,.27-1.06,.54,.01,.96,0,1.92,0,2.88-.24,0-.48,0-.72,0,0-1.81,0-3.62,0-5.43Z"/><path class="cls-18" d="M411.06,38.9h.72c0,1.81,0,3.62,0,5.43-.24,0-.48,0-.71,0,0-1.81,0-3.62,0-5.43Z"/><path class="cls-18" d="M424.25,39.06c.28-.16,.69,.07,.68,.4,.03,.29-.28,.54-.56,.46-.42-.05-.48-.69-.11-.86Z"/><path class="cls-18" d="M386.32,40.62c.81-.61,2.12-.43,2.67,.44,.31,.45,.37,1,.37,1.53-1.05,0-2.1,0-3.15,0,.11,.4,.26,.83,.65,1.03,.62,.36,1.4,.12,1.91-.32,.11,.17,.23,.33,.35,.49-.82,.76-2.24,.87-3.06,.05-.86-.88-.77-2.52,.25-3.24Zm-.12,1.41c.83,.01,1.65,0,2.48,0-.12-.63-.61-1.24-1.31-1.15-.65-.01-1.03,.59-1.17,1.15Z"/><path class="cls-18" d="M391.59,40.57c.82-.52,2-.37,2.6,.42-.16,.14-.33,.28-.49,.43-.33-.36-.81-.61-1.3-.46-1.28,.27-1.3,2.44-.05,2.77,.51,.18,1.02-.08,1.36-.46,.16,.15,.31,.3,.47,.44-.65,.88-2.04,.95-2.83,.22-.97-.86-.86-2.65,.24-3.35Z"/><path class="cls-18" d="M400.68,40.35c.24,0,.48,0,.71,0,0,.11,0,.34,0,.46,.54-.46,1.33-.73,2.01-.4,.45,.19,.59,.7,.6,1.15,.01,.92,0,1.85,0,2.77-.24,0-.48,0-.72,0-.01-.92,.03-1.84-.02-2.75,.01-.4-.38-.68-.75-.66-.44-.02-.8,.26-1.12,.53,0,.96,0,1.92,0,2.88-.24,0-.48,0-.72,0,0-1.32,0-2.65,0-3.97Z"/><path class="cls-18" d="M406.9,40.36c.83-.27,1.86,.05,2.29,.84,.52,.88,.37,2.16-.45,2.81-.85,.7-2.31,.5-2.87-.49-.69-1.07-.26-2.79,1.03-3.16Zm.12,.66c-.76,.38-.91,1.45-.53,2.15,.33,.7,1.41,.81,1.89,.21,.43-.53,.46-1.33,.12-1.92-.29-.5-.97-.69-1.49-.45Z"/><path class="cls-18" d="M414.61,40.38c.67-.24,1.48-.11,2.01,.39,.88,.83,.86,2.43-.07,3.21-.83,.72-2.29,.55-2.87-.4-.72-1.05-.34-2.78,.93-3.2Zm.13,.66c-.74,.41-.86,1.49-.45,2.18,.35,.64,1.36,.74,1.84,.2,.47-.55,.49-1.4,.11-2-.31-.48-1-.63-1.5-.37Z"/><path class="cls-18" d="M418.93,41.04c.54-.95,1.97-1.01,2.69-.23,0-.11-.01-.34-.02-.45h.72c0,1.28,.01,2.56,0,3.85,0,.59-.28,1.22-.84,1.47-.88,.38-1.99,.28-2.7-.39,.12-.18,.24-.37,.37-.55,.52,.56,1.44,.75,2.09,.3,.4-.26,.34-.79,.41-1.2-.53,.44-1.27,.71-1.94,.42-1.22-.49-1.38-2.19-.77-3.21Zm.99,.03c-.72,.47-.76,1.6-.29,2.26,.47,.62,1.47,.46,1.92-.11,.1-.58,.07-1.18,.02-1.77-.36-.49-1.11-.7-1.65-.38Z"/><path class="cls-18" d="M427.13,40.69c.82-.71,2.28-.52,2.81,.45,.27,.44,.3,.96,.34,1.46-1.05,0-2.11,0-3.16,0,.11,.43,.3,.89,.73,1.08,.62,.3,1.33,.05,1.83-.38,.11,.16,.23,.33,.35,.49-.74,.71-1.97,.85-2.82,.26-1.07-.77-1.09-2.55-.07-3.37Zm-.02,1.34c.83,0,1.65,0,2.48,0-.13-.57-.51-1.16-1.16-1.15-.7-.1-1.19,.53-1.32,1.15Z"/><path class="cls-18" d="M432.04,40.55c.79-.52,1.86-.32,2.54,.29-.11,.17-.22,.34-.33,.52-.32-.23-.66-.48-1.07-.49-.37-.04-.9,.1-.92,.55-.03,.22,.23,.31,.39,.38,.57,.21,1.26,.22,1.72,.66,.49,.49,.32,1.39-.28,1.72-.85,.45-1.96,.26-2.65-.39,.12-.18,.24-.36,.36-.54,.48,.43,1.18,.74,1.81,.47,.36-.11,.49-.74,.09-.87-.56-.27-1.23-.27-1.75-.62-.57-.38-.5-1.33,.08-1.67Z"/><path class="cls-18" d="M424.1,40.58h.72c0,1.25,0,2.5,0,3.74-.24,0-.48,0-.72,0,0-1.25,0-2.5,0-3.75Z"/></g><text class="cls-17" transform="translate(436.78 22.31)"><tspan x="0" y="0">R</tspan></text></g><g><g><path class="cls-20" d="M236.19,58.8c1.02,0,2.03,0,3.05,0,0,2.4,0,4.8,0,7.2,.74-.87,1.64-1.65,2.74-2.01,2.1-.69,4.6-.35,6.27,1.15,1.33,1.2,2.13,2.93,2.34,4.7,.21,1.81,.05,3.71-.75,5.36-.69,1.41-1.86,2.64-3.35,3.2-1.3,.48-2.76,.54-4.1,.2-1.26-.32-2.35-1.13-3.15-2.15,0,.67,0,1.34,0,2.01-1.02,0-2.04,0-3.05,0,0-6.55,0-13.11,0-19.66Zm5.91,7.79c-1.49,.44-2.47,1.87-2.75,3.35-.31,1.77-.05,3.8,1.28,5.12,1.59,1.49,4.57,1.4,5.85-.46,.83-1.14,1.03-2.62,.93-4-.09-1.19-.52-2.38-1.38-3.24-1.03-.98-2.61-1.15-3.93-.77Z"/><path class="cls-20" d="M298.32,58.8c1.02,0,2.03,0,3.05,0,0,2.42,0,4.84,0,7.26,.88-1.15,2.14-2.06,3.59-2.3,1.56-.27,3.34-.04,4.53,1.09,1.09,.98,1.56,2.48,1.57,3.92,0,3.23,0,6.47,0,9.7h-3.05c0-2.98,0-5.96,0-8.95,0-1.05-.37-2.25-1.38-2.74-1.49-.67-3.42-.22-4.44,1.07-.6,.72-.83,1.67-.83,2.59,0,2.67,0,5.35,0,8.02h-3.05c0-6.56,0-13.11,0-19.66Z"/><path class="cls-20" d="M272.85,60.1c1.02,0,2.03,0,3.05,0,0,1.3,0,2.6,0,3.89h4.47v2.37c-1.49,0-2.98,0-4.47,0,0,2.53,0,5.06,0,7.59,0,.71,.19,1.57,.88,1.92,.94,.47,2.08,.19,2.9-.39,.41,.76,.82,1.52,1.22,2.28-1.37,1.01-3.17,1.24-4.81,.93-.96-.18-1.87-.71-2.43-1.52-.65-.88-.78-2-.82-3.06,0-2.58,0-5.16,0-7.75-.81,0-1.63,0-2.44,0,0-.79,0-1.58,0-2.36,.81,0,1.63,0,2.44,0,0-1.3,0-2.6,0-3.9Z"/><path class="cls-20" d="M257.26,64c1.48-.48,3.13-.48,4.58,.07,1.02,.39,1.87,1.12,2.53,1.96,0-.68,0-1.36,0-2.04,1.02,0,2.03,0,3.05,0,0,3.73,0,7.46,0,11.19,0,.39,.05,.87,.42,1.1,.42,.24,.94,.13,1.36-.05,.11,.71,.25,1.43,.37,2.14-1.02,.4-2.18,.45-3.23,.13-.92-.28-1.55-1.11-1.79-2.01-.82,1.12-2.05,1.92-3.42,2.17-1.8,.34-3.79,.14-5.32-.93-1.62-1.14-2.6-3.04-2.85-4.98-.24-1.88-.08-3.86,.77-5.57,.72-1.44,1.96-2.68,3.52-3.18Zm1.64,2.58c-1.67,.47-2.59,2.23-2.74,3.85-.19,1.8,.21,3.92,1.78,5.03,1.65,1.04,4.16,.8,5.37-.82,.95-1.22,1.19-2.87,.98-4.37-.16-1.23-.75-2.47-1.79-3.19-1.04-.71-2.41-.83-3.61-.5Z"/><path class="cls-20" d="M284.99,65.14c1.66-1.38,3.98-1.72,6.07-1.34,1.86,.31,3.44,1.54,4.46,3.1-.77,.56-1.54,1.11-2.32,1.66-.51-.88-1.26-1.68-2.25-1.99-1.28-.41-2.79-.21-3.8,.71-1.09,.99-1.58,2.49-1.54,3.94-.05,1.62,.57,3.37,1.96,4.3,1.48,.95,3.61,.74,4.87-.5,.33-.3,.59-.67,.85-1.03,.77,.54,1.55,1.07,2.32,1.61-.99,1.53-2.55,2.71-4.36,3.05-2.11,.41-4.49,.12-6.2-1.28-1.84-1.46-2.77-3.84-2.69-6.16-.07-2.28,.84-4.63,2.64-6.08Z"/></g><path class="cls-16" d="M236.07,80.99h75v3.05h-75v-3.05Z"/></g><g><g><path class="cls-1" d="M134.04,62.2h12.94c-.77,1.23-1.53,2.46-2.3,3.69-2.3,0-4.61,0-6.91,0,0,1.23,0,2.46,0,3.69,2.3,0,4.6,0,6.9,0,.01,1.23,0,2.46,.02,3.69-2.3,0-4.61,0-6.91,0,0,1.84,0,3.69,0,5.53h-3.72v-16.61Z"/><path class="cls-1" d="M155.15,62.2h.5c1.29,.03,2.58,.36,3.71,.97,1,.54,1.9,1.28,2.6,2.17,.67,.85,1.18,1.83,1.48,2.88,.54,1.87,.39,3.94-.42,5.71-.7,1.54-1.88,2.86-3.34,3.72-1.04,.61-2.21,1-3.41,1.11-.17,.02-.33,.02-.5,.04h-.59c-.16-.01-.32-.02-.47-.03-1.2-.11-2.38-.48-3.43-1.09-.91-.53-1.72-1.24-2.37-2.07-.73-.94-1.26-2.03-1.53-3.19-.38-1.62-.27-3.35,.33-4.9,.53-1.39,1.45-2.63,2.63-3.55,.88-.7,1.91-1.21,3-1.49,.59-.16,1.2-.24,1.82-.27Zm-.24,3.57c-1.27,.15-2.45,.85-3.19,1.88-.74,1.01-1.03,2.34-.79,3.57,.21,1.14,.88,2.17,1.81,2.85,.98,.72,2.24,1.03,3.44,.83,1.09-.17,2.1-.74,2.8-1.58,.8-.94,1.2-2.22,1.06-3.45-.12-1.27-.81-2.47-1.84-3.22-.93-.7-2.14-1.02-3.3-.88Z"/><path class="cls-1" d="M166.06,62.2h8.68c.71,.03,1.44,.1,2.11,.37,.86,.33,1.54,.99,2.05,1.74,.31,.45,.53,.96,.66,1.49,.12,.47,.18,.95,.22,1.43,.06,.6,.03,1.21-.04,1.81-.13,1-.56,2-1.32,2.68-.59,.52-1.31,.86-2.06,1.08,.59,1.04,1.2,2.07,1.8,3.1,.56,.96,1.11,1.92,1.68,2.88h-4.24c-.94-1.84-1.9-3.69-2.84-5.53-.99,0-1.98,0-2.96,0,0,1.84,0,3.69,0,5.53h-3.73v-16.61Zm3.73,3.52c0,1.34,0,2.67,0,4.01,1.39,.01,2.78,0,4.16,0,.24,0,.48,0,.7-.08,.57-.16,1.06-.6,1.29-1.15,.23-.53,.21-1.16-.05-1.67-.26-.54-.78-.94-1.36-1.06-.26-.06-.53-.05-.8-.05-1.31,0-2.63,0-3.94,0Z"/><path class="cls-1" d="M182.11,62.2h3.71c1.55,2.41,3.1,4.82,4.65,7.23,1.54-2.41,3.09-4.82,4.63-7.23h3.72v16.61h-3.72c0-3.24,0-6.49,0-9.73-.14,.18-.25,.38-.37,.57-.77,1.21-1.55,2.41-2.31,3.63-1.3,0-2.6,0-3.91,0-.68-1.06-1.36-2.13-2.03-3.19-.22-.33-.42-.68-.65-1.01,0,3.24,0,6.49,0,9.73h-3.71v-16.61Z"/></g><g><path class="cls-14" d="M201.11,62.2h12.94c-.78,1.23-1.56,2.46-2.35,3.68-3.53,0-7.06,0-10.59,0,0-1.23,0-2.45,0-3.68Z"/><path class="cls-14" d="M211.03,66.94c.53,.32,1,.74,1.42,1.2,.99,1.12,1.57,2.6,1.6,4.1v.29c-.03,1.36-.51,2.71-1.36,3.79-.95,1.23-2.36,2.09-3.89,2.38-.35,.07-.71,.1-1.06,.11h-.32c-.58-.02-1.16-.11-1.72-.28-1.65-.49-3.08-1.67-3.87-3.21-.48-.91-.72-1.93-.72-2.95,1.19,0,2.38,0,3.58,0,0,.61,.2,1.22,.57,1.71,.54,.73,1.43,1.18,2.34,1.17,.88,0,1.75-.43,2.28-1.13,.53-.68,.72-1.6,.51-2.43-.17-.72-.64-1.35-1.26-1.74,.63-1,1.28-2,1.91-3.01Z"/></g></g><g><path class="cls-18" d="M342.68,66.48c1.89,0,3.78,0,5.66,0,0,5.47,0,10.94,0,16.41h-5.66v-16.41Z"/><path class="cls-18" d="M414.77,67.69c.61-.23,1.38,.11,1.56,.74,.18,.57-.2,1.21-.77,1.36-.6,.2-1.36-.14-1.52-.77-.17-.55,.2-1.16,.73-1.33Z"/><path class="cls-18" d="M371.6,68.06c.77,0,1.54,0,2.31,0v10.5c-.77,0-1.54,0-2.31,0v-10.5Z"/><path class="cls-18" d="M334.84,71.35c.98-.71,2.29-.95,3.46-.64,1.29,.32,2.39,1.32,2.85,2.57,.41,1.1,.33,2.38-.23,3.41-.57,1.06-1.61,1.86-2.79,2.1-1.16,.26-2.43-.02-3.38-.75-.91-.67-1.48-1.73-1.63-2.84v-.92c.14-1.16,.76-2.27,1.73-2.94Z"/><path class="cls-18" d="M353.06,70.64c.92-.17,1.9,0,2.72,.45,1.11,.6,1.92,1.74,2.11,2.99,.19,1.1-.11,2.27-.78,3.16-.67,.9-1.72,1.5-2.83,1.62-1.07,.13-2.18-.17-3.03-.84-.87-.67-1.46-1.7-1.58-2.8-.13-1.05,.16-2.14,.8-2.99,.62-.84,1.57-1.42,2.6-1.59Z"/><path class="cls-18" d="M365.76,70.75c1.14-.36,2.46-.03,3.33,.79,1.54,1.43,1.7,4,.55,5.71-.56,.84-1.5,1.44-2.51,1.54-1.01,.14-2.12-.27-2.71-1.12,.07,1.17,.02,2.34,.04,3.52-.77,0-1.54,0-2.3,0,0-3.45,0-6.89,0-10.34,.73,0,1.47,0,2.2,0,0,.31,0,.62,0,.93,.37-.47,.85-.86,1.42-1.03Zm.06,2.03c-.91,.23-1.48,1.22-1.38,2.13,.05,.69,.48,1.36,1.13,1.63,.71,.32,1.63,.11,2.11-.51,.58-.75,.57-1.9,0-2.65-.43-.54-1.19-.78-1.85-.6Z"/><path class="cls-18" d="M375.73,72.38c.53-.95,1.5-1.67,2.6-1.77,1.05-.11,2.25,.23,2.85,1.16,0-.31,0-.62,0-.93,.73,0,1.47,0,2.2,0,0,2.57,0,5.15,0,7.72-.73,0-1.47,0-2.2,0,0-.31,0-.63,0-.94-.33,.5-.84,.86-1.41,1.03-.95,.28-2.03,.19-2.86-.37-.84-.53-1.39-1.43-1.63-2.39-.29-1.18-.16-2.47,.45-3.53Zm2.96,.43c-.59,.18-1.05,.68-1.19,1.28-.16,.64-.08,1.37,.31,1.91,.34,.47,.93,.71,1.51,.68,.66,0,1.28-.45,1.56-1.04,.36-.74,.25-1.69-.31-2.31-.45-.52-1.22-.74-1.88-.51Z"/><path class="cls-18" d="M387.38,70.74c1.08-.29,2.29-.17,3.26,.41,.96,.55,1.61,1.55,1.84,2.62-.78,0-1.56,0-2.33,0-.18-.4-.47-.76-.89-.9-.73-.29-1.65-.09-2.11,.56-.59,.84-.52,2.15,.27,2.84,.51,.45,1.3,.52,1.91,.24,.41-.19,.68-.59,.82-1.01,.78,0,1.56,0,2.34,0-.2,1.07-.8,2.09-1.74,2.68-.92,.6-2.09,.75-3.15,.53-1.11-.23-2.09-.97-2.62-1.97-.65-1.21-.67-2.74-.05-3.97,.48-.98,1.39-1.74,2.45-2.02Z"/><path class="cls-18" d="M396.29,70.7c1.21-.27,2.56-.04,3.52,.76,1.11,.91,1.57,2.43,1.37,3.83-1.89,0-3.79,0-5.68,0,.11,.59,.46,1.19,1.05,1.4,.7,.27,1.66,.13,2.02-.6,.82,0,1.65,0,2.47,0-.35,1.26-1.43,2.26-2.7,2.57-1.04,.26-2.2,.15-3.14-.38-.92-.51-1.6-1.41-1.87-2.42-.31-1.16-.15-2.47,.51-3.48,.55-.85,1.44-1.46,2.43-1.68Zm-.7,3.02c1.1,0,2.19,0,3.29,0-.14-.88-1.12-1.37-1.94-1.2-.64,.09-1.16,.59-1.35,1.2Z"/><path class="cls-18" d="M419.27,70.88c.73-.29,1.54-.34,2.31-.24,.71,.1,1.42,.38,1.91,.92,.43,.44,.64,1.06,.63,1.67-.75,0-1.49-.01-2.24-.02-.06-.2-.12-.43-.31-.55-.33-.22-.77-.24-1.14-.11-.32,.12-.45,.56-.25,.83,.21,.21,.52,.23,.79,.29,.89,.15,1.84,.23,2.59,.79,.52,.38,.77,1.04,.75,1.68,.03,.68-.22,1.39-.74,1.85-.66,.59-1.57,.79-2.44,.83-.91,.02-1.87-.14-2.6-.72-.63-.49-1-1.28-.99-2.08,.73,0,1.46,0,2.2,.02,.05,.26,.13,.55,.37,.71,.43,.3,1.03,.32,1.51,.12,.38-.16,.47-.78,.09-.99-.47-.27-1.04-.25-1.56-.36-.69-.14-1.41-.42-1.87-.98-.49-.6-.56-1.45-.37-2.19,.17-.67,.7-1.21,1.33-1.47Z"/><path class="cls-18" d="M428.25,70.69c1.19-.25,2.5-.01,3.45,.77,.83,.67,1.3,1.7,1.41,2.75v1.06c-1.9,.03-3.81,0-5.71,.01,.11,.53,.38,1.06,.87,1.32,.71,.38,1.8,.27,2.2-.51,.83,0,1.65,0,2.48,0-.35,1.25-1.41,2.24-2.65,2.56-1.1,.29-2.33,.16-3.31-.44-.9-.54-1.54-1.47-1.78-2.49-.27-1.14-.08-2.4,.57-3.38,.56-.85,1.47-1.46,2.47-1.66Zm-.77,3.04c1.1,0,2.19,0,3.29,0-.14-.88-1.13-1.38-1.96-1.2-.63,.1-1.14,.6-1.33,1.2Z"/><path class="cls-18" d="M401.3,70.84c.83,0,1.65,0,2.48,0,.44,1.57,.92,3.14,1.34,4.72,.47-1.57,.88-3.15,1.33-4.72,.56,0,1.12,0,1.69,0,.42,1.57,.83,3.14,1.27,4.7,.51-1.55,.93-3.14,1.4-4.7,.81,0,1.62,0,2.43,0-.84,2.58-1.7,5.15-2.54,7.72-.7,0-1.41,0-2.11,0-.44-1.42-.88-2.84-1.32-4.26-.45,1.42-.9,2.83-1.34,4.25-.69,0-1.37,0-2.06,0-.85-2.57-1.7-5.15-2.55-7.72Z"/><path class="cls-18" d="M414.04,70.84h2.3c0,2.57,0,5.15,0,7.72-.77,0-1.54,0-2.31,0,0-2.57,0-5.15,0-7.72Z"/></g><g><g><path class="cls-10" d="M51.13,24.35c.36-.09,.76-.03,1.07,.17,.36,.23,.6,.63,.63,1.06,.03,.51-.26,1.01-.71,1.25-.4,.22-.9,.22-1.3,0-.37-.19-.64-.57-.71-.98-.12-.67,.36-1.36,1.02-1.51Z"/><path class="cls-10" d="M14.79,25.82c.01-.6,.54-1.14,1.14-1.15,.95,0,1.9,0,2.85,0,.75,.01,1.53,.17,2.17,.58,.5,.31,.9,.78,1.1,1.33,.21,.59,.23,1.24,.08,1.84-.14,.56-.47,1.07-.92,1.43-.07,.07-.16,.11-.21,.2,.25,.14,.51,.27,.73,.47,.51,.44,.82,1.09,.91,1.75,.09,.71-.02,1.45-.38,2.08-.33,.58-.87,1.03-1.47,1.3-.69,.31-1.46,.41-2.22,.4-1.26,0-2.52,0-3.78,0,0-3.41,0-6.81,0-10.22Zm2.35,.95c-.14,.18-.16,.42-.16,.64,0,.62,0,1.23,0,1.85,.59,0,1.18,0,1.77,0,.36,0,.73-.15,.96-.44,.26-.32,.34-.76,.29-1.16-.03-.3-.15-.6-.38-.8-.24-.22-.58-.32-.91-.32-.34,0-.67,0-1.01,0-.21,0-.43,.07-.57,.24Zm-.03,4.52c-.1,.16-.12,.35-.13,.53,0,.76,0,1.52,0,2.29,.66,0,1.32,0,1.98,0,.39,0,.79-.14,1.06-.42,.29-.3,.41-.73,.4-1.14,0-.4-.12-.81-.4-1.1-.27-.29-.67-.42-1.06-.43-.44,0-.88,0-1.32,0-.2,0-.42,.09-.53,.27Z"/><path class="cls-10" d="M42.03,24.66c.41,0,.82,0,1.23,0,.29,0,.61,.05,.84,.25,.23,.2,.3,.51,.3,.8,0,1.63,0,3.25,0,4.88,.21,0,.42,.02,.63-.02,.13-.03,.25-.09,.32-.2,.55-.85,1.09-1.69,1.64-2.54,.89,0,1.79,0,2.68,0-.69,1.03-1.38,2.05-2.07,3.08-.16,.25-.34,.49-.55,.7,.15,.15,.29,.32,.39,.51,.31,.58,.61,1.15,.92,1.73,.45,.74,.9,1.48,1.34,2.22-.64,0-1.28,0-1.92,0-.28,0-.57-.03-.81-.19-.24-.15-.4-.4-.53-.65-.42-.8-.85-1.6-1.27-2.41-.06-.11-.18-.16-.3-.17-.15-.02-.31-.01-.46-.01,0,1.14,0,2.28,0,3.42-.79,0-1.58,0-2.37,0,0-3.8,0-7.61,0-11.41Z"/><path class="cls-10" d="M64.44,28.14c.58-.36,1.27-.52,1.95-.51,.81,0,1.65,.24,2.25,.81,.09-.2,.22-.38,.41-.48,.18-.1,.39-.15,.6-.15,.37,0,.74,0,1.11,0,0,2.53,0,5.06,0,7.59,0,.66-.13,1.32-.45,1.9-.26,.48-.64,.89-1.1,1.2-.57,.39-1.24,.61-1.91,.72-.45,.08-.9,.04-1.35,.05-.9-.07-1.78-.33-2.57-.77,.16-.4,.31-.8,.47-1.19,.08-.17,.19-.35,.37-.43,.2-.09,.42-.05,.62,.02,.63,.22,1.31,.34,1.97,.26,.39-.05,.78-.17,1.08-.43,.25-.21,.41-.52,.47-.83,.05-.21,.04-.43,.04-.65-.26,.2-.54,.39-.85,.49-.58,.2-1.22,.21-1.82,.12-.61-.11-1.2-.38-1.67-.79-.47-.41-.83-.94-1.05-1.52-.27-.71-.35-1.48-.3-2.24,.05-.68,.22-1.35,.57-1.94,.28-.49,.69-.92,1.17-1.22Zm1.93,1.59c-.44,.06-.82,.35-1.02,.75-.29,.57-.32,1.25-.2,1.87,.1,.52,.38,1.05,.86,1.31,.38,.2,.83,.23,1.24,.14,.36-.08,.69-.31,.88-.64,.27-.46,.32-1.01,.31-1.54-.01-.46-.09-.94-.35-1.32-.19-.28-.49-.46-.81-.54-.3-.07-.61-.08-.91-.03Z"/><path class="cls-10" d="M27.44,27.67c1.02-.05,2.07,.23,2.89,.84,.79,.59,1.34,1.48,1.54,2.44,.26,1.25,.02,2.62-.76,3.64-.42,.55-.99,.98-1.62,1.25-.85,.36-1.8,.44-2.71,.28-.94-.16-1.82-.65-2.44-1.38-.63-.74-.96-1.71-.98-2.68-.04-1.1,.32-2.23,1.07-3.05,.76-.85,1.89-1.31,3.02-1.35Zm-.16,2.03c-.52,.09-.98,.41-1.26,.85-.34,.54-.43,1.22-.33,1.85,.08,.55,.34,1.09,.79,1.43,.52,.41,1.25,.48,1.87,.27,.44-.15,.81-.48,1.02-.89,.27-.52,.34-1.13,.26-1.7-.08-.55-.34-1.09-.78-1.44-.44-.35-1.03-.46-1.57-.36Z"/><path class="cls-10" d="M36.71,27.67c.76-.03,1.52,.12,2.2,.45,.97,.47,1.73,1.35,2.06,2.38,.42,1.33,.25,2.87-.58,4.01-.6,.83-1.54,1.4-2.54,1.6-1.29,.26-2.71,0-3.74-.82-.51-.4-.92-.94-1.18-1.54-.3-.69-.41-1.46-.35-2.21,.05-.71,.28-1.41,.67-2.01,.53-.82,1.37-1.42,2.31-1.68,.37-.11,.76-.16,1.15-.18Zm-.2,2.03c-.6,.1-1.12,.51-1.37,1.05-.28,.57-.32,1.23-.19,1.84,.12,.53,.42,1.03,.89,1.33,.51,.33,1.17,.37,1.74,.18,.46-.16,.84-.52,1.05-.96,.25-.52,.31-1.12,.22-1.69-.09-.54-.36-1.07-.81-1.4-.43-.32-1-.43-1.53-.34Z"/><path class="cls-10" d="M56.96,28.26c.59-.44,1.34-.63,2.07-.61,.61,.01,1.23,.14,1.74,.5,.42,.29,.72,.74,.89,1.22,.16,.46,.22,.94,.22,1.42,0,1.76,0,3.53,0,5.29-.37,0-.74,0-1.11,0-.32,0-.67-.05-.92-.28-.25-.22-.33-.57-.33-.89,0-1.27,0-2.55,0-3.82-.02-.35-.05-.74-.3-1.01-.25-.25-.65-.26-.98-.22-.62,.07-1.19,.46-1.47,1.01-.22,.43-.32,.92-.32,1.4,0,1.27,0,2.53,0,3.8-.78,0-1.57,0-2.35,0,0-2.75,0-5.5,0-8.25,.36,0,.73,0,1.09,0,.33,0,.68,.08,.93,.32,.17,.16,.24,.4,.29,.62,.18-.18,.36-.37,.57-.52Z"/><path class="cls-10" d="M50.38,27.83c.4,0,.79,0,1.19,0,.32,0,.66,.09,.88,.33,.23,.25,.29,.59,.29,.92,0,2.33,0,4.66,0,7-.78,0-1.56,0-2.34,0,0-2.75,0-5.5,0-8.24Z"/></g><g><path class="cls-21" d="M86.95,27.67c1.16-.07,2.36,.27,3.23,1.05,.5,.44,.88,1.01,1.11,1.64,.45,1.26,.35,2.74-.36,3.89-.55,.9-1.47,1.55-2.5,1.8-1.26,.31-2.67,.13-3.75-.62-.84-.58-1.43-1.5-1.64-2.5-.28-1.29-.02-2.73,.83-3.77,.74-.92,1.9-1.45,3.07-1.5Zm-.06,2.02c-.33,.06-.64,.2-.9,.42-.42,.36-.66,.9-.72,1.44-.07,.59,.01,1.22,.32,1.73,.24,.4,.62,.71,1.06,.84,.66,.2,1.44,.05,1.94-.43,.47-.45,.67-1.12,.66-1.76,0-.65-.22-1.33-.71-1.78-.44-.41-1.07-.56-1.66-.46Z"/><path class="cls-21" d="M77.79,27.89c.85-.26,1.77-.29,2.64-.07,.5,.13,1.01,.33,1.39,.7,.28,.26,.46,.63,.47,1.02,0,.38,0,.77,0,1.15-.42,0-.83,0-1.25,0-.36,0-.69-.26-.78-.61-.05-.22-.29-.32-.49-.38-.72-.19-1.55,.02-2.07,.56-.39,.4-.59,.95-.63,1.5-.04,.58,.09,1.2,.46,1.66,.39,.5,1.02,.77,1.64,.82,.52,.05,1.04-.08,1.49-.32,.41-.21,.79-.49,1.1-.84,.33,.54,.65,1.08,.97,1.62-.31,.38-.71,.68-1.13,.93-1.3,.76-2.96,.84-4.34,.24-1-.43-1.81-1.27-2.19-2.29-.48-1.29-.37-2.82,.39-3.99,.53-.83,1.38-1.43,2.32-1.71Z"/><path class="cls-21" d="M95.67,28.01c.66-.36,1.45-.42,2.17-.23,.45,.12,.87,.38,1.16,.74,.15,.18,.25,.39,.37,.59,.23-.3,.48-.59,.79-.81,.59-.44,1.33-.66,2.07-.63,.55,.02,1.11,.15,1.55,.48,.37,.27,.63,.66,.78,1.09,.19,.52,.24,1.09,.24,1.64,0,1.73,0,3.46,0,5.18-.36,0-.72,0-1.08,0-.4,.01-.87-.12-1.05-.52-.11-.23-.13-.49-.12-.74,0-1.21,0-2.43,0-3.64,0-.36-.02-.76-.21-1.08-.14-.23-.43-.33-.69-.32-.48-.02-.94,.22-1.24,.57-.39,.44-.56,1.02-.65,1.6-.05,.53-.02,1.06-.03,1.59v2.55c-.75,0-1.51,0-2.26,0,0-1.61,0-3.23,0-4.84,0-.28-.02-.56-.11-.82-.08-.25-.25-.48-.5-.57-.3-.12-.64-.1-.93,.02-.39,.16-.68,.5-.87,.87-.3,.57-.42,1.23-.41,1.87,0,1.16,0,2.32,0,3.48-.75,0-1.5,0-2.24,0,0-2.74,0-5.47,.01-8.21,.36,0,.71,0,1.07,0,.33,0,.69,.11,.91,.38,.15,.18,.18,.42,.24,.64,.3-.34,.64-.66,1.05-.87Z"/><path class="cls-21" d="M72.83,33.44c.54-.09,1.12,.18,1.39,.65,.22,.36,.26,.82,.1,1.21-.15,.37-.46,.67-.84,.79-.53,.19-1.17,0-1.51-.45-.36-.45-.39-1.13-.07-1.61,.21-.32,.55-.54,.92-.6Z"/></g></g></svg>